# xmcd
#
# Track frame offsets: 
#        150
#        625
#        29285
#        48125
#        60387
#        75257
#        92813
#        115017
#        169309
#        189717
#        206711
#        231826
#        244340
#        259509
#        300848
#
# Disc length: 4359 seconds
#
# Revision: 0
# Processed by: cddbd v1.5.2PL0 Copyright (c) Steve Scherf et al.
# Submitted via: ExactAudioCopyFreeDBPlugin 1.0
#
DISCID=b211050f
DTITLE=Nanaimo Blues Society All-Stars - Live at the Blues Underground
DYEAR=2008
DGENRE=Blues
TTITLE0=Intro
TTITLE1=Playing With My Friends
TTITLE2=Rack 'em Up
TTITLE3=Get Rhythm
TTITLE4=C.O.D.
TTITLE5=Motor Running
TTITLE6=Chitlins con Carne
TTITLE7=Roll Daddy Roll
TTITLE8=Back at the Chicken Shack
TTITLE9=She Caught the Katy
TTITLE10=I Got my Mojo Workin'
TTITLE11=I Can't Hold Out
TTITLE12=My Babe
TTITLE13=Stormy Monday
TTITLE14=Flip Flop and Fly
EXTD=
EXTT0=
EXTT1=
EXTT2=
EXTT3=
EXTT4=
EXTT5=
EXTT6=
EXTT7=
EXTT8=
EXTT9=
EXTT10=
EXTT11=
EXTT12=
EXTT13=
EXTT14=
PLAYORDER=
